<svg version="1" xmlns="http://www.w3.org/2000/svg" width="682.667" height="682.667" viewBox="0 0 512.000000 512.000000"><path d="M248.8 2.6c-32.5 3.8-68.7 15.7-96.8 32C90.7 70.1 46.4 129.7 30.6 198c-2.1 9.3-3.4 16.2-4.2 22.5-.1 1.1-.5 4-.9 6.5-1.3 9-1.3 45.3.1 56.4 2.8 22.6 4.7 31.1 11.6 52.6 4.2 13 5.2 15.4 12.4 30.5 9.8 20.4 25.2 43.6 38 57.3 2 2 3.8 4.4 4.2 5.3 1 2.4 8.8 10.6 16.3 16.9 3.5 3 6.6 5.7 6.9 6 2.7 2.9 24.4 17.9 33.5 23.1 6.3 3.6 21.4 11.2 28 14.1 18 7.9 48.5 16.3 66 18.3 3.3.4 6.9.9 8 1.2 3.8.9 45 1.1 52 .2 3.9-.5 9-1.1 11.5-1.4 19.8-2.5 47.1-10.3 67.9-19.5 18.4-8 36-18.6 53.1-31.9 9.9-7.7 14.6-11.9 25.1-22.5l7.8-7.8-2.2-2.2c-1.2-1.2-6-5.6-10.7-9.7-4.7-4.1-9-7.9-9.6-8.4-.6-.6-4.6-4.2-8.9-8-4.3-3.9-9.9-8.8-12.4-11.1-2.5-2.3-9.1-8.1-14.6-13-10.5-9.3-16.1-14.3-20.4-18.2-1.4-1.3-5.3-4.7-8.5-7.5-3.3-2.9-7.4-6.6-9.1-8.2-3-2.7-11.2-10-17.5-15.5-1.4-1.2-4.6-4-7.1-6.3s-7.7-6.9-11.4-10.2c-3.8-3.3-7.6-6.7-8.5-7.5-.8-.8-7.2-6.4-14-12.5-6.9-6-13.2-11.7-14-12.5-.8-.8-5.3-4.8-10-8.9-9.7-8.5-11.1-10.1-10.4-11.2.2-.5 14.5-13.3 31.7-28.6s31.7-28.2 32.3-28.8c.6-.5 4.6-4.2 8.9-8 4.3-3.9 8.3-7.5 8.9-8 .6-.6 4.7-4.2 9.1-8 7.2-6.3 11.1-9.8 17.9-16 1.2-1.1 5.5-4.9 9.6-8.5 4-3.6 7.8-7 8.4-7.5.6-.6 4.9-4.4 9.6-8.5 4.7-4.1 8.7-7.7 9-8 .3-.3 4.8-4.3 10-9 5.2-4.6 13.2-11.7 17.6-15.7 4.5-4 9.7-8.6 11.7-10.1s3.8-3.2 4.1-3.9c.7-1.7-17.1-19.3-29.6-29.4-24.6-19.8-53.6-35.3-83.1-44.3-12.3-3.8-20.4-5.8-32.7-8.1C303.7 1 269.5.1 248.8 2.6z"/></svg>